# xmcd
#
# Track frame offsets:
#	150
#	8799
#	29220
#	50227
#	71435
#	89922
#	104003
#	117501
#	136698
#	149313
#
# Disc length: 2188 seconds
#
# Revision: 1
# Processed by: cddbd v1.5.2PL0 Copyright (c) Steve Scherf et al.
# Submitted via: audiograbber 1.83.01
#
DISCID=9b088a0a
DTITLE=Bradford Antony Tretola - TIME
DYEAR=2007
DGENRE=Blues
TTITLE0=The Homecoming
TTITLE1=Together in Time
TTITLE2=Brothers' Song
TTITLE3=One of Those Days
TTITLE4=Crossroads Blues
TTITLE5=Fuller's Rag
TTITLE6=Stones in My Passway
TTITLE7=Kindhearted Woman Blues
TTITLE8=Walking Blues
TTITLE9=Amazing Grace
EXTD=
EXTT0=
EXTT1=
EXTT2=
EXTT3=
EXTT4=
EXTT5=
EXTT6=
EXTT7=
EXTT8=
EXTT9=
PLAYORDER=
